<?xml version="1.0" encoding="utf-8"?>
<!-- Generator: Adobe Illustrator 28.2.0, SVG Export Plug-In . SVG Version: 6.00 Build 0)  -->
<svg version="1.1" id="Layer_1" xmlns="http://www.w3.org/2000/svg" xmlns:xlink="http://www.w3.org/1999/xlink" x="0px" y="0px"
	 viewBox="0 0 190.2 71.4" style="enable-background:new 0 0 190.2 71.4;" xml:space="preserve">
<style type="text/css">
	.st0{fill:#BE4F1C;}
	.st1{fill:#BE4F1C;stroke:#BE4F1C;stroke-width:0.25;stroke-miterlimit:10;}
	.st2{fill:#1F7F9B;}
</style>
<g>
	<g>
		<path class="st0" d="M10,67c1.7-0.2,2.2-0.6,2.2-2.4v-5.2c0-1.2-0.3-1.5-1.9-1.6v-0.5h3.9l4.1,7.9l4.2-7.9h3.7v0.5
			c-1.6,0.1-2.1,0.4-2.1,2.1v5.7c0,1.1,0.3,1.3,2.1,1.4v0.5h-6V67c1.8-0.1,2.2-0.4,2.2-1.9V59h-0.1l-4.1,7.6
			c-0.2,0.4-0.4,0.8-0.6,0.8c-0.2,0-0.3-0.2-0.6-0.8L13,59H13v6.8c0,0.7,0.4,1.1,1.9,1.2v0.5H10V67z"/>
		<path class="st0" d="M28.5,67c1.2-0.1,1.5-0.2,1.5-1v-7.1c0-0.9-0.3-1-1.5-1v-0.5h4.9v0.5c-1.3,0.1-1.6,0.2-1.6,1V66
			c0,0.9,0.3,1,1.6,1v0.5h-4.9V67z"/>
		<path class="st0" d="M35.9,67c1.1-0.1,1.5-0.4,1.5-1.4v-6.1c0-1.3-0.3-1.5-1.8-1.7v-0.5c1,0,2.1,0.1,3.1,0.1
			c2.1,2.7,4.7,5.1,7,7.6v-4.4c0-2.3-0.3-2.6-1.8-2.7v-0.5H48v0.5c-1.5,0.1-1.8,0.4-1.8,1.7v8h-0.8l-0.7-0.7c-1.7-1.9-6-6.4-6.6-7.5
			h-0.1v6.4c0,0.8,0.5,1.1,1.5,1.2v0.5h-3.7V67z"/>
		<path class="st0" d="M55.6,57.4v0.5c-1.8,0.1-2.1,0.3-2.1,1.3V64c0,2.2,0.9,2.9,3.1,2.9c1.9,0,3.4-0.9,3.4-3.2v-4
			c0-1.6-0.5-1.8-2-1.9v-0.5h4.1v0.5c-1.1,0.1-1.5,0.6-1.5,1.8V64c0,2.5-1.8,3.8-4.6,3.8c-2.8,0-4.5-1-4.5-3.3v-4.9
			c0-1.3-0.3-1.5-1.7-1.7v-0.5H55.6z"/>
		<path class="st0" d="M69.9,59.9h-0.3c-0.6-1.6-1.4-2-2.3-2c-1.1,0-1.6,0.5-1.6,1.5c0,2.5,4.9,2.2,4.9,5.5c0,1.6-1.5,2.9-3.4,2.9
			c-2.2,0-3.2-0.8-3.2-1.4c0-1.8,0.1-1.9,0.3-1.9c0.2,0,0.9,2.8,2.9,2.8c1.1,0,2-0.7,2-1.8c0-2.3-4.9-1.9-4.9-5.4
			c0-1.5,0.9-2.7,3.2-2.7c0.8,0,1.7,0.2,2.4,0.5V59.9z"/>
		<path class="st1" d="M78.5,68c4.5-0.7,5.6-3.4,5.8-5c-0.5,0.3-1.2,0.6-2.1,0.6c-1.9,0-3.7-1.3-3.7-3.5c0-2.3,2.2-3.6,3.9-3.6
			c2.8,0,3.9,2.2,3.9,4.4c0,2.2-1.5,6.8-7.8,7.3V68z M84.8,60.5c0-2.3-1-3.7-2.5-3.7S80,58.1,80,60.1c0,2.1,0.9,3.1,2.4,3.1
			C83.7,63.2,84.8,62.3,84.8,60.5z"/>
		<path class="st0" d="M96.5,67.5V67c1.2-0.1,1.5-0.4,1.5-1.5v-6.7c0-0.6-0.3-0.9-0.7-0.9c-2.2,0-2.4,1.8-2.9,1.8
			c-0.3,0-0.4-0.1-0.4-0.3c0-0.2,0.3-1.5,0.4-1.9c0.1-0.3,0.1-0.7,0.5-0.7c0.7,0,0.4,0.4,1.8,0.4h5c1.7,0,1.5-0.4,2-0.4
			c0.3,0,0.5,0.1,0.5,0.4V59c0,0.4-0.1,0.7-0.5,0.7c-0.5,0-0.2-1.7-2.4-1.7c-1,0-1.2,0.2-1.2,1.9v5.7c0,1.1,0.2,1.4,1.5,1.5v0.5
			H96.5z"/>
		<path class="st0" d="M105.4,62.6c0-3.2,2.2-5.2,5.4-5.2s5.4,2,5.4,5.2s-2.2,5.2-5.4,5.2S105.4,65.7,105.4,62.6z M114.2,62.6
			c0-2.3-0.8-4.7-3.4-4.7s-3.4,2.4-3.4,4.7s0.8,4.7,3.4,4.7S114.2,64.8,114.2,62.6z"/>
		<path class="st1" d="M124,67.9c1.7-0.1,5.7-0.9,5.7-3.9c0-2.1-2.2-3-5.5-3l0.9-4.4h4.6c1,0,1-0.6,1.4-0.6c0.1,0,0.2,0.1,0.2,0.2
			s-0.2,0.4-0.6,1.7l-5.3-0.1l-0.5,2.1c0.3,0,0.5-0.1,0.8-0.1c3.2,0,5.3,1.8,5.3,3.9c0,1.7-1.4,4.1-7.2,4.4V67.9z"/>
	</g>
	<g>
		<path class="st2" d="M5.1,49.2v-3.1c1.6-0.2,5.4,0.6,5.9-1.5c0.2-0.6,0.2-1.3,0.2-2V13.2c0-0.4,0.1-0.9-0.2-1.3
			c-0.2-0.6-0.5-0.9-1.1-1c-1.6-0.3-3.2-0.3-4.8-0.3V7.6h38.8l0.4,15h-2.9c-2.5-8.4-5.4-12-14.6-12c-1.4,0-2.8,0.1-4.1,0.6
			c-0.4,0.3-0.8,0.6-0.9,1.1c-0.4,0.9-0.3,2-0.3,2.9v10.9c5.7,0.5,8.5-2.8,9.1-8.2h2.9l0.2,20.1h-3.1c-0.2-5.5-3.4-9-9.2-8.8v12.6
			c0,2.5-0.1,3.8,2.7,4c1,0.1,2.1,0.2,3.1,0.2c9.1,0,12.3-4.1,14.8-12.5l2.9,0.2l-0.6,15.3H5.1L5.1,49.2z"/>
		<path class="st2" d="M46,7.6h20.8v3.1c-1.3,0.2-4-0.3-4.8,1c-0.2,0.8,0.2,1.6,0.5,2.3l9.4,23.9l8.4-21.4c0.2-0.7,0.4-1.3,0.4-2.1
			c0-2.8-3.5-3.8-5.7-3.7V7.6h16.9v3.1c-4.3,0.3-6.7,4.3-8.2,7.9L70.9,50.1h-4.7l-14.1-35c-0.8-2-1.4-3.8-3.8-4.3
			c-0.8-0.1-1.6-0.1-2.3-0.2V7.6L46,7.6z"/>
		<path class="st2" d="M99.8,14.4c0-1,0.2-2.7-0.8-3.3c-0.9-0.6-2.8-0.5-3.9-0.5h-1.4V7.6h18.7l9,25.3L130,7.6h18.6v3.1h-1.8
			c-1.3,0-2.9-0.2-3.8,1c-0.4,1.4-0.3,2.8-0.3,4.2v27.8c0.1,0.3,0.1,0.7,0.2,1c0.3,1.8,2.9,1.5,4.2,1.6h1.5v3.1h-21.9v-3.1h3.3
			c0.4-0.2,0.9-0.2,1.3-0.4c0.5-0.2,0.8-0.6,0.9-1c0.3-0.6,0.2-1.2,0.2-1.8V11.4h-0.1l-12.8,37.8h-2.9l-13.2-37.3h-0.1v26
			c0,4.7,0.6,8.5,6.4,8.3v3.1H93.6v-3.1c5.3-0.1,6.1-2.7,6.2-7.3V14.4L99.8,14.4z"/>
		<path class="st2" d="M150.3,33.5h2.8c2.3,6.6,7.8,13.6,15.5,13.6c4,0,8.4-1.9,8.4-6.6c0-3.9-2.7-5.4-6.2-6.1l-4.2-0.8
			c-4.3-0.8-7.9-1.6-11.5-4.3c-3-2.2-4.9-5.8-4.9-9.5c0-8.9,7.1-13.2,15.3-13.2c3.7,0,7,1,10.1,3.2l3.1-2.8h2.5l0.7,15.1h-2.9
			C177,16,172,9.7,164.8,9.7c-3.6,0-7.9,1.8-7.9,6c0,4.2,3.8,5.3,7.2,6l3.6,0.7c8.3,1.7,16.2,4.2,16.2,14.2c0,4-1.7,7.7-4.8,10.3
			c-2.9,2.4-6.9,3.2-10.6,3.2c-4.2,0-8.2-1.3-11.5-3.9l-3.6,3.5h-2.5L150.3,33.5L150.3,33.5z"/>
	</g>
</g>
</svg>
