<?xml version="1.0" encoding="utf-8"?>
<!-- Generator: Adobe Illustrator 27.6.1, SVG Export Plug-In . SVG Version: 6.00 Build 0)  -->
<svg version="1.1" id="Layer_1" xmlns="http://www.w3.org/2000/svg" xmlns:xlink="http://www.w3.org/1999/xlink" x="0px" y="0px"
	 viewBox="0 0 100 100" style="enable-background:new 0 0 100 100;" xml:space="preserve">
<style type="text/css">
	.st0{fill:#FFFFFF;}
	.st1{fill:#231F20;}
	.st2{fill-rule:evenodd;clip-rule:evenodd;fill:#231F20;}
</style>
<g>
	<circle class="st0" cx="50" cy="50" r="48.8"/>
	<path class="st1" d="M50,2.5c26.2,0,47.5,21.3,47.5,47.5S76.2,97.5,50,97.5S2.5,76.2,2.5,50S23.8,2.5,50,2.5 M50,0
		C22.4,0,0,22.4,0,50s22.4,50,50,50s50-22.4,50-50S77.6,0,50,0L50,0z"/>
</g>
<g>
	<g>
		<path class="st2" d="M59.8,34.9c4.7,0,8.5-3.8,8.5-8.5c0-2.3-0.9-4.3-2.4-5.9c0.2,0,0.3,0,0.5,0.1c1,0.3,2.1,1.2,2.5,3.7
			c0.7,4.5,4.6,7.1,7.9,3.1c0.3-0.3,0-0.8-0.4-0.7c-3.8,1.1-5.1-8.8-11.6-7.2c-1.4-1.1-3.2-1.7-5.1-1.7c-4.7,0-8.5,3.8-8.5,8.5
			C51.3,31,55.1,34.9,59.8,34.9z"/>
		<path class="st2" d="M86.8,22.3c0.3-0.6-0.5-1.2-1-0.7c-0.7,0.8-1.6,1.6-2.6,2.5c-2.5,2.2-5.9,4.6-9.6,6.3
			c-3.7,1.8-7.5,2.9-10.8,4.7c-6.2,3.3-10.4,8.8-13.5,14.4c-0.4,0.8-0.8,1.5-1.1,2.2c-0.3,0.6,0.5,1.2,1,0.7
			c1.6-1.4,3.2-2.7,4.7-3.9c1.8-1.4,3.4-2.5,5-3.5c-1.7,3.9-2.6,9-2,14.8c0.6,6.2,3.2,15.9,12,25c0.8,0.8,2.2,0,1.9-1.1
			c-4-12.6-5.8-20.5-4.8-21.2c4.5,10.7,9.3,17.9,12.8,22.2c0.8,1,2.3,0.1,1.9-1c-2.2-7.1-3.3-11-4.9-19.5c-0.8-4.4-2.6-18-1.1-26
			C78.6,35.9,82.4,31.8,86.8,22.3z"/>
	</g>
	<g>
		<path class="st2" d="M37.7,36.1c4.7,0,8.5-3.8,8.5-8.5c0-4.7-3.8-8.5-8.5-8.5c-4.7,0-8.5,3.8-8.5,8.5C29.2,32.3,33,36.1,37.7,36.1
			z"/>
		<path class="st2" d="M44.5,54.8c-1.6-6.2-4.3-12.5-9.5-17.2c-2.8-2.5-6.2-4.6-9.4-7.2c-3.1-2.6-5.9-5.8-7.7-8.5
			c-0.4-0.6-0.8-1.2-1.1-1.7c-0.5-0.8-1.8-0.3-1.6,0.7c1.8,8.9,4.3,13.4,7.3,16.5c0,0.2,0.1,0.3,0.1,0.5c2,7.7,0.1,23-0.8,27.7
			c-1.4,7.3-2.4,11.3-4.1,16.8c-0.5,1.7,1.8,2.9,2.8,1.4c3.2-4.4,7.3-11,11.1-20c1,0.7-0.6,7.7-4.1,19.1c-0.5,1.7,1.6,2.9,2.8,1.5
			c7.5-8.6,9.8-17.5,10.4-23.3c0.3-3,0.2-5.7-0.2-8.3c0.9,1.2,1.9,2.5,2.8,3.8c0.6,0.8,1.8,0.2,1.6-0.7
			C44.7,55.6,44.6,55.2,44.5,54.8z"/>
	</g>
</g>
</svg>
