<?xml version="1.0" encoding="utf-8"?>
<!-- Generator: Adobe Illustrator 27.6.1, SVG Export Plug-In . SVG Version: 6.00 Build 0)  -->
<svg version="1.1" id="Layer_1" xmlns="http://www.w3.org/2000/svg" xmlns:xlink="http://www.w3.org/1999/xlink" x="0px" y="0px"
	 viewBox="0 0 100 100" style="enable-background:new 0 0 100 100;" xml:space="preserve">
<style type="text/css">
	.st0{fill:#FFFFFF;}
	.st1{fill:#231F20;}
	.st2{fill-rule:evenodd;clip-rule:evenodd;fill:#231F20;}
</style>
<g>
	<circle class="st0" cx="50" cy="50" r="48.8"/>
	<path class="st1" d="M50,2.5c26.2,0,47.5,21.3,47.5,47.5S76.2,97.5,50,97.5S2.5,76.2,2.5,50S23.8,2.5,50,2.5 M50,0
		C22.4,0,0,22.4,0,50s22.4,50,50,50s50-22.4,50-50S77.6,0,50,0L50,0z"/>
</g>
<g>
	<g>
		<path class="st1" d="M42.1,43.3c-0.3-1.7-1.7-3.1-3.5-3.5c-2.8-0.6-5.3,1.6-5.3,4.4c0,2.4,2,4.4,4.4,4.4
			C40.5,48.6,42.7,46.1,42.1,43.3z"/>
		<path class="st1" d="M47.3,41.3c-3.9,6.1-9.7,7.6-12.7,15.9c-0.2,0.7,0.6,1.1,1.1,0.6c1.1-1.3,2.1-2.3,3.1-3.1
			c0.7,3.3,0.6,6.3,0.2,8.3c-0.7,3.4-1.1,5.3-1.9,7.9c-0.2,0.8,0.8,1.4,1.3,0.7c1.5-2.1,3.4-5.1,5.2-9.3c0.5,0.3-0.3,3.6-1.9,8.9
			c-0.2,0.8,0.8,1.3,1.3,0.7c3.5-4,4.6-8.2,4.8-10.9c0.4-4.1-0.9-9.1-2.6-11.2c1.2-1.6,2.3-4,3.1-8.2C48.4,41.1,47.7,40.8,47.3,41.3
			z"/>
	</g>
	<g>
		<path class="st2" d="M52.9,40.7c-0.3-0.5-1-0.2-0.9,0.4c0.9,4.6,2,6.9,3.5,8.5c-1.9,1.9-3.4,7.2-3,11.6c0.3,2.8,1.4,7.1,5.2,11.3
			c0.5,0.5,1.3,0,1.1-0.6c-1.7-5.6-2.5-9-2-9.4c1.9,4.5,4,7.8,5.5,9.8c0.4,0.6,1.4,0.1,1.1-0.6c-0.9-2.9-1.4-4.8-2.1-8.4
			c-0.4-2.1-0.5-5.5,0.3-9c0.8,0.7,1.6,1.4,2.4,2.4c0.4,0.5,1.2,0.1,1-0.6C62.2,47.9,56.6,46.5,52.9,40.7z"/>
		<path class="st2" d="M62.6,39.7c-2.4,0-4.4,2-4.4,4.4c0,2.4,2,4.4,4.4,4.4c2.4,0,4.4-2,4.4-4.4C67.1,41.7,65.1,39.7,62.6,39.7z"/>
	</g>
	<path class="st2" d="M33.2,43.5c-3.3,2.3,0.5,7.1-1.4,8.5c-0.2,0.1-0.1,0.5,0.1,0.5c3,0.1,3.4-2.8,1.7-5c-1-1.3-0.9-2.2-0.7-2.7
		C33.3,43.9,34.5,43.3,33.2,43.5L33.2,43.5z"/>
	<path class="st1" d="M51,31.1c0.5-1.1,1-1.6,2.1-1.6c1.1,0,2.1,0.9,2.1,2.1c0,2.1-2.1,4.2-4.1,6.4c-2.1-2.1-4.1-4.2-4.1-6.4
		c0-1.2,0.9-2.1,2.1-2.1C49.9,29.5,50.5,30,51,31.1L51,31.1z"/>
	<g>
		<path class="st2" d="M75.9,39.3c3.1,0,5.6-2.5,5.6-5.6c0-3.1-2.5-5.6-5.6-5.6c-3.1,0-5.6,2.5-5.6,5.6
			C70.2,36.8,72.8,39.3,75.9,39.3z"/>
		<path class="st2" d="M85.9,40.1c2.1-2.1,3.7-5.4,5-11.9c0.1-0.5-0.5-0.7-0.8-0.3c-0.3,0.6-0.7,1.3-1.2,2c-1.2,1.8-3,3.9-5.1,5.6
			c-2.1,1.7-4.3,3.1-6.2,4.7c-3.4,3.1-5.2,7.3-6.3,11.4c-0.2,0.6-0.3,1.1-0.3,1.5c-0.1,0.4,0.5,0.7,0.7,0.3c0.8-1.1,1.6-2.2,2.3-3.2
			c-0.3,1.7-0.3,3.5-0.1,5.4c0.4,4.1,2.1,10.5,7.9,16.5c0.5,0.6,1.5,0,1.2-0.7c-2.6-8.3-3.8-13.5-3.1-14c3,7,6.1,11.8,8.4,14.6
			c0.5,0.6,1.5,0.1,1.3-0.7c-1.4-4.7-2.2-7.3-3.3-12.8c-0.6-3.1-1.8-13.1-0.5-18.2C85.8,40.3,85.9,40.2,85.9,40.1z"/>
	</g>
	<g>
		<path class="st2" d="M23.3,40.1c3.1,0,5.6-2.5,5.6-5.6c0-3.1-2.5-5.6-5.6-5.6c-3.1,0-5.6,2.5-5.6,5.6
			C17.7,37.6,20.2,40.1,23.3,40.1z"/>
		<path class="st2" d="M27.8,52.5c-1-4.1-2.8-8.2-6.2-11.4c-1.8-1.7-4.1-3-6.2-4.7c-2-1.7-3.9-3.8-5.1-5.6C10,30.4,9.8,30,9.5,29.7
			c-0.3-0.6-1.2-0.2-1.1,0.4c1.2,5.9,2.8,8.8,4.8,10.9c0,0.1,0,0.2,0.1,0.3c1.3,5.1,0.1,15.1-0.5,18.2c-0.9,4.8-1.6,7.4-2.7,11.1
			c-0.3,1.1,1.2,1.9,1.9,0.9c2.1-2.9,4.8-7.2,7.3-13.1c0.6,0.4-0.4,5.1-2.7,12.5c-0.3,1.1,1.1,1.9,1.8,1c4.9-5.6,6.4-11.5,6.8-15.3
			c0.2-2,0.1-3.8-0.1-5.4c0.6,0.8,1.2,1.6,1.9,2.5c0.4,0.5,1.2,0.2,1-0.5C27.9,53,27.8,52.8,27.8,52.5z"/>
	</g>
</g>
</svg>
