<?xml version="1.0" encoding="utf-8"?>
<!-- Generator: Adobe Illustrator 27.6.1, SVG Export Plug-In . SVG Version: 6.00 Build 0)  -->
<svg version="1.1" id="Layer_1" xmlns="http://www.w3.org/2000/svg" xmlns:xlink="http://www.w3.org/1999/xlink" x="0px" y="0px"
	 viewBox="0 0 100 100" style="enable-background:new 0 0 100 100;" xml:space="preserve">
<style type="text/css">
	.st0{fill:#FFFFFF;}
	.st1{fill:#231F20;}
	.st2{fill-rule:evenodd;clip-rule:evenodd;fill:#231F20;}
</style>
<g>
	<circle class="st0" cx="50" cy="50" r="48.8"/>
	<path class="st1" d="M50,2.5c26.2,0,47.5,21.3,47.5,47.5S76.2,97.5,50,97.5S2.5,76.2,2.5,50S23.8,2.5,50,2.5 M50,0
		C22.4,0,0,22.4,0,50s22.4,50,50,50s50-22.4,50-50S77.6,0,50,0L50,0z"/>
</g>
<g>
	<path class="st2" d="M10.6,60.8c1-3.8,2.9-7.5,5.9-10.7c13.2-13.9,16.7-12.8,31.6-4c2.2,1.3,4.2,2.8,6.2,4.2c4.1,2.9,6.5,3,8.4-3.2
		c1.2-3.7,3.7-6.9,6.7-9.7c2.6-2.3,5.8-4.3,8.7-6.7c2.9-2.4,5.5-5.4,7.2-7.9c0.1-0.1,0.1-0.2,0.2-0.2c0.7-1,2.2-0.3,1.9,0.9
		c-4,15-10.9,14.5-6.2,39.5c1.4,7.1,2.3,10.8,4,16.2c0.5,1.5-1.5,2.5-2.5,1.2c-3.1-4.1-7-10.4-10.6-19c-0.9,0.6,0.6,7.4,3.9,18.2
		c0.4,1.4-1.4,2.5-2.4,1.4c-7.2-8.1-9.4-16.5-10-22c-0.2-2.2-0.2-4.3,0-6.3c-2.5,3.4-5.7,3.5-9.1,1.9c-8.9-4.3-8.2,1-6.8,11.9
		c0.7,5.4,1.6,8.1,3,12.3c0.3,1-1,1.8-1.7,0.9c-2.3-3-5.3-7.7-8-14.3c-0.7,0.5,0.4,5.6,3,13.7c0.3,1-1,1.7-1.6,0.9
		c-6.4-7.3-9.5-17.6-6.8-26.8c0.6-2.1,1.5-7-0.5-9.1c-1.4-1.5-3.4-3.9-5.6-2.5c-6.2,3.8-3,9.5-1.8,13.9c0.8,2.9,1.2,6.2,0.9,9.1
		c-0.4,3.7-1.8,9.2-6.5,14.5c-0.7,0.8-2,0.1-1.7-0.9c2.2-7.1,3.2-11.5,2.6-11.9c-2.4,5.7-4.9,9.8-7,12.5c-0.6,0.9-2,0.2-1.7-0.9
		c1.1-3.5,1.7-6,2.6-10.6c0.5-2.7,0.7-6.8-0.3-11.2c-1.1,0.8-2.2,1.8-3.4,3.3c-0.5,0.6-1,1.2-1.4,1.9C11.3,62,10.4,61.5,10.6,60.8
		L10.6,60.8L10.6,60.8z"/>
	<path class="st2" d="M66.4,20c4.7,0,8.4,4,7.9,8.8c-0.4,3.6-3.3,6.6-6.9,7c-4.8,0.5-8.8-3.2-8.8-7.9C58.5,23.5,62,20,66.4,20
		L66.4,20z"/>
	<path class="st2" d="M9.1,41.5c-4.2,3,0.3,8.9-1.6,11c-0.3,0.3-0.1,0.9,0.4,0.9c3.5-0.2,3.9-3.8,1.8-6.6c-1.3-1.7-1.2-2.8-0.9-3.6
		c0.1-0.2,0.3-0.5,0.4-0.7c0,3.2,2.7,5.8,5.9,5.8c3.3,0,6-2.7,5.8-6.1c-0.1-3-2.5-5.4-5.4-5.6c-3.1-0.2-5.7,2-6.2,5
		C9.3,41.5,9.2,41.5,9.1,41.5L9.1,41.5z"/>
	<path class="st2" d="M49.7,32.2c-3.7,0-6.7,3.1-6.5,6.8c0.1,3.5,3.2,6.4,6.8,6.3c3.5-0.1,6.3-3,6.3-6.5
		C56.2,35.1,53.3,32.2,49.7,32.2L49.7,32.2z"/>
</g>
</svg>
