<?xml version="1.0" encoding="utf-8"?>
<!-- Generator: Adobe Illustrator 27.6.1, SVG Export Plug-In . SVG Version: 6.00 Build 0)  -->
<svg version="1.1" id="Layer_1" xmlns="http://www.w3.org/2000/svg" xmlns:xlink="http://www.w3.org/1999/xlink" x="0px" y="0px"
	 viewBox="0 0 100 100" style="enable-background:new 0 0 100 100;" xml:space="preserve">
<style type="text/css">
	.st0{fill:#FFFFFF;}
	.st1{fill:#231F20;}
</style>
<g>
	<circle class="st0" cx="50" cy="50" r="48.8"/>
	<path class="st1" d="M50,2.5c26.2,0,47.5,21.3,47.5,47.5S76.2,97.5,50,97.5S2.5,76.2,2.5,50S23.8,2.5,50,2.5 M50,0
		C22.4,0,0,22.4,0,50s22.4,50,50,50s50-22.4,50-50S77.6,0,50,0L50,0z"/>
</g>
<g>
	<circle class="st1" cx="34.8" cy="16.9" r="8.8"/>
	<ellipse transform="matrix(0.9225 -0.3861 0.3861 0.9225 -1.4977 26.9751)" class="st1" cx="66.4" cy="17.2" rx="8.7" ry="8.7"/>
	<circle class="st1" cx="50.8" cy="36.4" r="7"/>
	<g>
		<path class="st1" d="M39.7,86.6L40.4,71c-0.8,0.4-1.7,0.7-2.7,0.7c-0.6,0-1.1-0.1-1.6-0.2c-0.2,0-0.3-0.1-0.5-0.2l0.5,14.9
			c0.1,2.4,2,4.3,4.4,4.3c0.1,0,0.1,0,0.1,0c0,0,0,0,0,0C40,89.4,39.6,88,39.7,86.6z"/>
		<path class="st1" d="M32.6,68.7c-0.8-1.4-1-2.9-0.5-4.4l4-14.2c1.1-3.8,3.3-6.3,6.8-7.6c-1.3-1.7-2-3.7-2-6c0-3.3,1.7-6.4,4.2-8.2
			c-1.7-1-4.2-1.9-7.6-1.9h-5.3c-5.7,0-8.7,2.4-10.1,4c-1,1.2-1.9,3.3-2.4,6.2L16,56.7c-0.3,1.9,0.9,3.8,2.9,4.1
			c0.2,0,0.4,0.1,0.6,0.1c1.7,0,3.1-1.2,3.5-2.9l2.7-15.3V53c0,4.2-1.1,32.9-1.1,32.9c-0.1,2.5,1.9,4.5,4.3,4.6c0.1,0,0.1,0,0.2,0
			c2.4,0,4.4-1.9,4.5-4.3l0.6-15.8C33.5,69.9,33,69.3,32.6,68.7z"/>
	</g>
	<g>
		<path class="st1" d="M65.5,71.4c-0.5,0.1-1,0.2-1.6,0.2c-1,0-2-0.3-2.8-0.7l0.8,15.8c0.1,1.4-0.3,2.7-1,3.8c0.2,0,0.4,0.1,0.6,0.1
			c0,0,0.1,0,0.1,0c2.1,0,3.8-1.7,3.9-3.8l0.4-15.4C65.7,71.3,65.6,71.4,65.5,71.4z"/>
		<path class="st1" d="M84.6,55.8l-7.5-24.1c-0.4-1.1-1-2.8-2.1-3.6c-1.6-1.2-3.1-1.7-7.6-1.7h-2c-4.5,0-6,0.5-7.6,1.7
			c-0.2,0.2-0.4,0.4-0.6,0.6c2.2,1.8,3.6,4.6,3.6,7.7c0,2.2-0.8,4.3-2,6c3.4,1.3,5.7,3.9,6.7,7.6l4,14c0.7,2.6-0.4,5.2-2.6,6.4
			c0,0,0,0,0,0l0.5,16.2c0,2.1,1.8,3.9,3.9,3.9c0,0,0.1,0,0.1,0c2.1,0,3.8-1.8,3.8-3.9l-0.4-16.5c3.2-0.5,5.1-1.1,5.1-1.1
			s-0.7-6.2-2.6-11.5c-1.2-3.4-2.8-7-2.8-11.2c0-0.9,0-1.8,0.1-2.6l4.3,14c0.4,1.3,1.6,2.1,2.8,2.1c0.3,0,0.6,0,0.9-0.1
			C84.2,59,85.1,57.3,84.6,55.8z"/>
	</g>
	<path class="st1" d="M66.7,65l-4-14.2c-1.5-5.3-5.8-6.6-10.4-6.6h-3c-4.6,0-8.8,1.3-10.4,6.6l-4,14.3c-0.4,1.5,0.5,3.1,2,3.5
		c0.3,0.1,0.5,0.1,0.8,0.1c1.2,0,2.4-0.8,2.7-2.1l3.1-11.2v10.1l-0.9,21.3c-0.1,2,1.5,3.6,3.4,3.7c0.1,0,0.1,0,0.2,0
		c1.9,0,3.5-1.4,3.6-3.3l0.7-15h0.7l0.6,15c0.1,1.9,1.7,3.4,3.5,3.4c0.1,0,0.1,0,0.1,0c2-0.1,3.4-1.8,3.3-3.7l-1-21.3V55.4L61,66.5
		c0.4,1.3,1.6,2.1,2.9,2.1c0.3,0,0.5,0,0.8-0.1C66.2,68.1,67.1,66.5,66.7,65z"/>
</g>
</svg>
