<?xml version="1.0" encoding="utf-8"?>
<!-- Generator: Adobe Illustrator 27.6.1, SVG Export Plug-In . SVG Version: 6.00 Build 0)  -->
<svg version="1.1" id="Layer_1" xmlns="http://www.w3.org/2000/svg" xmlns:xlink="http://www.w3.org/1999/xlink" x="0px" y="0px"
	 viewBox="0 0 100 100" style="enable-background:new 0 0 100 100;" xml:space="preserve">
<style type="text/css">
	.st0{fill:#FFFFFF;}
	.st1{fill:#231F20;}
</style>
<g>
	<circle class="st0" cx="50" cy="50" r="48.8"/>
	<path class="st1" d="M50,2.5c26.2,0,47.5,21.3,47.5,47.5S76.2,97.5,50,97.5S2.5,76.2,2.5,50S23.8,2.5,50,2.5 M50,0
		C22.4,0,0,22.4,0,50s22.4,50,50,50s50-22.4,50-50S77.6,0,50,0L50,0z"/>
</g>
<g>
	<path class="st1" d="M47,36.5c0.1,0,0.3,0,0.4,0c0.8,0,1.6-0.6,1.8-1.4l0.5-2l6.7-1.2l1.1,1.8c0.6,0.9,1.7,1.1,2.6,0.5
		c0.9-0.6,1.1-1.7,0.5-2.6l-8.3-12.7c-0.4-0.6-1.1-0.9-1.9-0.8c-0.7,0.1-1.3,0.7-1.5,1.4l-3.4,14.8C45.4,35.3,46,36.3,47,36.5z
		 M51.6,24.6l2.6,4l-3.6,0.6L51.6,24.6z"/>
	<path class="st1" d="M27.7,71.9h6.4c3,0,5.5-2.4,5.5-5.5c0-1.4-0.6-2.8-1.5-3.7c0.6-0.8,1-1.9,1-3c0-2.7-2.2-5-5-5h-6.4
		c-1,0-1.8,0.8-1.8,1.8V70C25.9,71,26.7,71.9,27.7,71.9z M29.6,58.4h4.6c0.7,0,1.3,0.6,1.3,1.3c0,0.7-0.6,1.3-1.3,1.3
		c-0.1,0-0.1,0-0.2,0h-4.4V58.4z M29.6,64.6h4.6c1,0,1.8,0.8,1.8,1.8c0,1-0.8,1.8-1.8,1.8h-4.6V64.6z"/>
	<path class="st1" d="M88.3,47.4c-0.4-0.6-1.1-1-1.8-1.1l-21.8-3.8l4.8-0.8c1.5-0.3,2.5-1.7,2.2-3.2L66.7,9.2
		c-0.1-0.7-0.5-1.4-1.1-1.8C65,7,64.3,6.9,63.5,7l-29.1,5.1c-1.5,0.3-2.5,1.7-2.2,3.2l5.1,29.1c0.1,0.5,0.3,0.9,0.6,1.3H18
		c-1.5,0-2.8,1.2-2.8,2.8V78c0,1.5,1.2,2.8,2.8,2.8h29.6c1.5,0,2.8-1.2,2.8-2.8v-2.8c0.3,0.2,0.7,0.4,1.1,0.4l29.1,5.1
		c0.2,0,0.3,0,0.5,0c1.3,0,2.5-0.9,2.7-2.3l5.1-29.1C88.9,48.7,88.8,48,88.3,47.4z M61.8,12.9l4.2,23.7l-23.7,4.2l-4.2-23.7
		L61.8,12.9z M44.8,75.3h-24v-24h24V75.3z M50.3,65.8V48.5c0-1.5-1.2-2.8-2.8-2.8h-1.7l8.3-1.5L50.3,65.8z M78.7,74.8L55,70.7
		L59.2,47l23.7,4.2L78.7,74.8z"/>
	<path class="st1" d="M67.6,69.8c0.4,0.1,0.8,0.1,1.2,0.1c2.9,0,5.7-1.8,7.1-4.8c0.5-0.9,0.1-2-0.8-2.5c-0.9-0.5-2-0.1-2.5,0.8
		c-1,1.9-2.7,3-4.4,2.7c-2.3-0.4-3.7-3-3.2-5.9c0.3-1.4,1-2.7,2-3.6c0.9-0.8,2-1.1,3-0.9c1.4,0.2,2.5,1.4,3,3c0.3,1,1.3,1.5,2.3,1.2
		c1-0.3,1.5-1.3,1.2-2.3c-0.9-3-3.2-5.1-5.9-5.6c-2.1-0.4-4.3,0.2-6,1.7c-1.7,1.4-2.8,3.4-3.2,5.7C60.5,64.5,63.3,69,67.6,69.8z"/>
</g>
</svg>
