<?xml version="1.0" encoding="utf-8"?>
<!-- Generator: Adobe Illustrator 27.6.1, SVG Export Plug-In . SVG Version: 6.00 Build 0)  -->
<svg version="1.1" id="Layer_1" xmlns="http://www.w3.org/2000/svg" xmlns:xlink="http://www.w3.org/1999/xlink" x="0px" y="0px"
	 viewBox="0 0 100 100" style="enable-background:new 0 0 100 100;" xml:space="preserve">
<style type="text/css">
	.st0{fill:#FFFFFF;}
	.st1{fill:#231F20;}
</style>
<g>
	<circle class="st0" cx="50" cy="50" r="48.8"/>
	<path class="st1" d="M50,2.5c26.2,0,47.5,21.3,47.5,47.5S76.2,97.5,50,97.5S2.5,76.2,2.5,50S23.8,2.5,50,2.5 M50,0
		C22.4,0,0,22.4,0,50s22.4,50,50,50s50-22.4,50-50S77.6,0,50,0L50,0z"/>
</g>
<g>
	<g>
		
			<rect x="18.7" y="21.1" transform="matrix(0.9693 -0.2457 0.2457 0.9693 -10.7541 13.8208)" class="st0" width="62.6" height="57.8"/>
		<path class="st1" d="M25.5,87.8l-15-59.4l64-16.2l15,59.4L25.5,87.8z M14.6,30.9L28,83.6l57.4-14.5L72,16.4L14.6,30.9z"/>
	</g>
	<g>
		<g>
			<rect x="18.7" y="21.1" class="st0" width="62.6" height="57.8"/>
			<path class="st1" d="M83,80.6H17V19.4h66V80.6z M20.4,77.2h59.2V22.8H20.4V77.2z"/>
		</g>
		<g>
			<path class="st1" d="M38.4,28.2c-0.1,0-0.2-0.1-0.4-0.1c-0.3,0-0.8,0-1.1,0c-0.2,0-0.3,0-0.4,0.1c-0.1,0-0.2,0.1-0.3,0.2
				c-0.1,0.1-0.1,0.2-0.1,0.2L35,34.4c-0.1,0.5-0.2,0.9-0.3,1.4c0,0.2-0.1,0.5-0.1,0.7c0-0.1-0.1-0.2-0.1-0.4
				c-0.1-0.3-0.2-0.7-0.3-1.1l-1.8-5.5c-0.1-0.2-0.2-0.5-0.2-0.6c-0.1-0.2-0.2-0.3-0.3-0.4c-0.1-0.1-0.3-0.2-0.4-0.3
				c-0.2-0.1-0.4-0.1-0.6-0.1h-1.3c-0.3,0-0.6,0.1-0.8,0.3c-0.2,0.2-0.4,0.4-0.5,0.8l-2.2,11c0,0.1,0,0.2,0,0.3
				c0,0.1,0.1,0.2,0.2,0.2c0.1,0,0.2,0.1,0.4,0.1c0.2,0,0.3,0,0.6,0c0.2,0,0.4,0,0.6,0c0.2,0,0.3,0,0.4-0.1c0.1,0,0.2-0.1,0.3-0.2
				c0.1-0.1,0.1-0.2,0.1-0.3l1.3-6.3c0.1-0.5,0.2-1,0.3-1.5c0-0.2,0.1-0.5,0.1-0.7c0,0.2,0.1,0.3,0.1,0.5c0.1,0.4,0.2,0.9,0.4,1.3
				l1.8,5.5c0.1,0.3,0.2,0.6,0.3,0.8c0.1,0.2,0.2,0.4,0.3,0.5c0.1,0.1,0.3,0.2,0.5,0.3c0.2,0,0.4,0.1,0.6,0.1h1.1
				c0.1,0,0.3,0,0.4-0.1c0.1,0,0.3-0.1,0.4-0.2c0.1-0.1,0.2-0.2,0.3-0.3c0.1-0.1,0.1-0.3,0.2-0.4l2.2-11.1c0-0.1,0-0.2,0-0.3
				C38.6,28.3,38.6,28.3,38.4,28.2z"/>
			<path class="st1" d="M48.2,28.2h-6.1c-0.2,0-0.5,0.1-0.7,0.2c-0.2,0.1-0.3,0.4-0.4,0.7l-2.1,10.7c0,0.2,0,0.3,0,0.4
				c0,0.1,0.1,0.2,0.1,0.3c0.1,0.1,0.2,0.2,0.3,0.2c0.1,0,0.2,0.1,0.3,0.1h6.2c0.1,0,0.2,0,0.3-0.1c0.1-0.1,0.1-0.2,0.2-0.3
				c0.1-0.1,0.1-0.2,0.1-0.4c0-0.1,0.1-0.2,0.1-0.4c0-0.1,0-0.2,0-0.3c0-0.1,0-0.2,0-0.2c0-0.2,0-0.3-0.1-0.4
				c-0.1-0.1-0.2-0.2-0.3-0.2h-4.2l0.6-3.1h3.6c0.1,0,0.2,0,0.3-0.1c0.1-0.1,0.1-0.2,0.2-0.3c0.1-0.1,0.1-0.2,0.1-0.4
				c0-0.1,0.1-0.2,0.1-0.4c0-0.1,0-0.2,0-0.3c0-0.1,0-0.2,0-0.2c0-0.1,0-0.3-0.1-0.4c-0.1-0.1-0.2-0.2-0.3-0.2H43l0.5-2.7h4.2
				c0.1,0,0.2-0.1,0.3-0.2c0.1-0.1,0.1-0.2,0.2-0.3c0.1-0.1,0.1-0.2,0.1-0.4c0-0.1,0.1-0.3,0.1-0.4c0-0.1,0-0.2,0-0.3
				c0-0.1,0-0.2,0-0.2C48.6,28.2,48.3,28.2,48.2,28.2z"/>
			<path class="st1" d="M66.7,28.8c0.1-0.2,0-0.3-0.1-0.5c-0.1-0.1-0.2-0.2-0.4-0.2c-0.2,0-0.4,0-0.7,0c-0.3,0-0.5,0-0.7,0
				c-0.2,0-0.3,0-0.5,0.1c-0.1,0-0.2,0.1-0.3,0.2c-0.1,0.1-0.1,0.2-0.2,0.3l-3.8,8.8l-0.4-8.6c0-0.1,0-0.3-0.1-0.3
				c0-0.1-0.1-0.2-0.3-0.3c-0.1-0.1-0.3-0.1-0.4-0.1c-0.2,0-0.4,0-0.7,0c-0.3,0-0.5,0-0.7,0c-0.2,0-0.3,0-0.5,0.1
				c-0.1,0.1-0.2,0.1-0.3,0.2c-0.1,0.1-0.1,0.2-0.2,0.3l-3.9,8.7l-0.2-8.6c0-0.1,0-0.2,0-0.3c0-0.1-0.1-0.2-0.2-0.3
				c-0.1-0.1-0.3-0.1-0.5-0.1c-0.2,0-0.4,0-0.7,0c-0.3,0-0.6,0-0.8,0c-0.2,0-0.4,0.1-0.5,0.1c-0.1,0.1-0.2,0.2-0.2,0.4
				c0,0.1,0,0.3,0,0.5L50.2,40c0,0.2,0,0.3,0.1,0.4c0.1,0.1,0.2,0.2,0.3,0.3c0.1,0.1,0.3,0.1,0.6,0.1c0.2,0,0.5,0,0.9,0
				c0.3,0,0.6,0,0.8,0c0.2,0,0.4,0,0.5-0.1c0.1-0.1,0.3-0.1,0.4-0.3c0.1-0.1,0.2-0.2,0.2-0.4l3.1-7.2l0.4,7.2c0,0.2,0,0.3,0.1,0.4
				c0.1,0.1,0.2,0.2,0.3,0.3c0.1,0,0.3,0.1,0.5,0.1c0.2,0,0.5,0,0.8,0c0.3,0,0.6,0,0.8,0c0.2,0,0.4,0,0.6-0.1
				c0.2-0.1,0.3-0.1,0.4-0.3c0.1-0.1,0.2-0.2,0.2-0.4l5-10.7C66.6,29.1,66.6,29,66.7,28.8z"/>
			<path class="st1" d="M74.6,29c0-0.1-0.1-0.2-0.2-0.2c-0.1-0.1-0.2-0.2-0.4-0.2c-0.2-0.1-0.4-0.2-0.6-0.3
				c-0.2-0.1-0.5-0.1-0.8-0.2C72.3,28,72,28,71.7,28c-0.7,0-1.3,0.1-1.9,0.3c-0.6,0.2-1.1,0.5-1.5,0.8c-0.4,0.4-0.8,0.8-1,1.3
				c-0.2,0.5-0.4,1.1-0.4,1.6c0,0.4,0.1,0.8,0.2,1.1c0.1,0.3,0.3,0.6,0.5,0.9c0.2,0.2,0.4,0.5,0.7,0.7c0.2,0.2,0.5,0.3,0.7,0.5
				c0.2,0.2,0.5,0.3,0.7,0.4c0.2,0.1,0.4,0.3,0.6,0.4c0.2,0.1,0.3,0.3,0.4,0.4c0.1,0.2,0.1,0.3,0.1,0.5c0,0.2,0,0.5-0.1,0.6
				c-0.1,0.2-0.2,0.4-0.4,0.5c-0.2,0.1-0.4,0.3-0.6,0.4c-0.3,0.1-0.6,0.1-0.9,0.1c-0.4,0-0.8,0-1-0.1c-0.3-0.1-0.5-0.2-0.8-0.3
				c-0.2-0.1-0.4-0.2-0.5-0.3c-0.2-0.1-0.3-0.2-0.5-0.2c-0.1,0-0.2,0-0.3,0.2c-0.1,0.1-0.1,0.2-0.2,0.3c0,0.1-0.1,0.2-0.1,0.4
				c0,0.1-0.1,0.3-0.1,0.4c0,0.1,0,0.2-0.1,0.3c0,0.1,0,0.2,0,0.2c0,0.2,0.1,0.4,0.2,0.5c0.1,0.1,0.2,0.2,0.4,0.3
				c0.2,0.1,0.4,0.2,0.7,0.3c0.3,0.1,0.6,0.2,1,0.2c0.4,0.1,0.7,0.1,1.2,0.1c0.8,0,1.5-0.1,2.1-0.3c0.6-0.2,1.2-0.5,1.6-0.9
				c0.5-0.4,0.8-0.9,1.1-1.4c0.3-0.5,0.4-1.1,0.4-1.7c0-0.4-0.1-0.8-0.2-1.1c-0.1-0.3-0.3-0.6-0.5-0.9c-0.2-0.2-0.4-0.5-0.7-0.7
				c-0.2-0.2-0.5-0.4-0.8-0.5c-0.3-0.2-0.5-0.3-0.7-0.4c-0.2-0.1-0.4-0.3-0.6-0.4c-0.2-0.1-0.3-0.3-0.4-0.4
				c-0.1-0.1-0.1-0.3-0.1-0.5c0-0.2,0-0.4,0.1-0.5c0.1-0.2,0.2-0.3,0.3-0.5c0.1-0.1,0.3-0.2,0.5-0.3c0.4-0.2,1.1-0.2,1.6,0
				c0.3,0.1,0.5,0.2,0.7,0.2c0.2,0.1,0.3,0.2,0.5,0.2c0.2,0.1,0.3,0.1,0.4,0.1c0.1,0,0.2,0,0.3-0.2c0.1-0.1,0.1-0.2,0.2-0.3
				c0-0.1,0.1-0.2,0.1-0.3c0-0.1,0.1-0.2,0.1-0.4c0-0.1,0-0.2,0-0.3c0-0.1,0-0.2,0-0.2C74.7,29.2,74.6,29.1,74.6,29z"/>
		</g>
		<rect x="25.6" y="45.2" class="st1" width="19.3" height="15.1"/>
		<rect x="50.2" y="45.2" class="st1" width="24.5" height="3"/>
		<rect x="50.2" y="57.6" class="st1" width="24.5" height="3"/>
		<rect x="25.9" y="63.8" class="st1" width="48.8" height="3"/>
		<rect x="25.9" y="70" class="st1" width="48.8" height="3"/>
		<rect x="50.2" y="51.4" class="st1" width="24.5" height="3"/>
	</g>
</g>
</svg>
