<?xml version="1.0" encoding="utf-8"?>
<!-- Generator: Adobe Illustrator 27.6.1, SVG Export Plug-In . SVG Version: 6.00 Build 0)  -->
<svg version="1.1" id="Layer_1" xmlns="http://www.w3.org/2000/svg" xmlns:xlink="http://www.w3.org/1999/xlink" x="0px" y="0px"
	 viewBox="0 0 100 100" style="enable-background:new 0 0 100 100;" xml:space="preserve">
<style type="text/css">
	.st0{fill:#FFFFFF;}
	.st1{fill:#231F20;}
</style>
<g>
	<circle class="st0" cx="50" cy="50" r="48.8"/>
	<path class="st1" d="M50,2.5c26.2,0,47.5,21.3,47.5,47.5S76.2,97.5,50,97.5S2.5,76.2,2.5,50S23.8,2.5,50,2.5 M50,0
		C22.4,0,0,22.4,0,50s22.4,50,50,50s50-22.4,50-50S77.6,0,50,0L50,0z"/>
</g>
<g>
	<path class="st1" d="M33.7,78.5c2.6-1.4,4.5-4.1,4.5-7.3c0-4.5-3.7-8.2-8.2-8.2s-8.2,3.7-8.2,8.2c0,3.2,1.8,5.9,4.5,7.3
		c-3.5,1.3-6.3,4.4-7.6,8.3h22.8C40,82.9,37.2,79.8,33.7,78.5z"/>
	<path class="st1" d="M59.1,78.5c2.6-1.4,4.5-4.1,4.5-7.3c0-4.5-3.7-8.2-8.2-8.2c-4.5,0-8.2,3.7-8.2,8.2c0,3.2,1.8,5.9,4.5,7.3
		c-3.5,1.3-6.3,4.4-7.6,8.3h22.8C65.4,82.9,62.6,79.8,59.1,78.5z"/>
	<path class="st1" d="M83.9,38.1c2.1-1.5,3.4-3.9,3.4-6.6c0-4.1-3-7.5-6.9-8.1V14H16.6v47.1h53.7c0.8,1.5,2.1,2.6,3.7,3.1v18.2
		c0,2.8,2.3,5.1,5.1,5.1s5.1-2.3,5.1-5.1V64.2c2.6-0.8,4.4-3.2,4.4-6.1V45.5C88.6,42.2,86.7,39.4,83.9,38.1z M76.5,23.7
		c-3.3,1.1-5.7,4.1-5.7,7.8c0,2.7,1.4,5.1,3.4,6.6c-0.1,0-0.1,0.1-0.2,0.1c-3.3,0-9.3-0.9-14.9-5.8c-1.6-1.4-4-1.3-5.4,0.3
		c-1.4,1.6-1.3,4,0.3,5.4c5.3,4.7,11,6.6,15.4,7.3v11.8H20.4V17.9h56.1V23.7z"/>
</g>
</svg>
