<?xml version="1.0" encoding="utf-8"?>
<!-- Generator: Adobe Illustrator 27.6.1, SVG Export Plug-In . SVG Version: 6.00 Build 0)  -->
<svg version="1.1" id="Layer_1" xmlns="http://www.w3.org/2000/svg" xmlns:xlink="http://www.w3.org/1999/xlink" x="0px" y="0px"
	 viewBox="0 0 1280 1024" style="enable-background:new 0 0 1280 1024;" xml:space="preserve">
<g>
	<g>
		<circle cx="679.2" cy="276.5" r="191.5"/>
	</g>
	<g>
		<path d="M876.2,479.8h-394c-23.8,0-43.1,19.3-43.1,43.1v215.4c0,23.8,19.3,43.1,43.1,43.1h39.3V583h23.8v330.2L485.8,960h182.5
			V753.7h21.8V960h182.5l-59.5-46.7V583h23.8v198.4h39.3c23.8,0,43.1-19.3,43.1-43.1V522.9C919.3,499.1,900,479.8,876.2,479.8z"/>
	</g>
</g>
<g>
	<g>
		<circle cx="220.8" cy="429.1" r="148.7"/>
	</g>
	<g>
		<path d="M373.8,587.1h-306c-18.5,0-33.5,15-33.5,33.5v167.3c0,18.5,15,33.5,33.5,33.5h30.5V667.2h18.5v256.5L70.6,960h141.8V799.7
			h17V960h141.8l-46.2-36.3V667.2h18.5v154.1h30.5c18.5,0,33.5-15,33.5-33.5V620.6C407.3,602.1,392.3,587.1,373.8,587.1z"/>
	</g>
</g>
<g>
	<g>
		<circle cx="1085.8" cy="547.6" r="115.5"/>
	</g>
	<g>
		<path d="M1204.7,670.3H967c-14.4,0-26,11.6-26,26v130c0,14.4,11.6,26,26,26h23.7V732.6h14.4v199.2L969.1,960h110.1V835.5h13.2V960
			h110.1l-35.9-28.2V732.6h14.4v119.7h23.7c14.4,0,26-11.6,26-26v-130C1230.7,682,1219,670.3,1204.7,670.3z"/>
	</g>
</g>
</svg>
