<?xml version="1.0" encoding="utf-8"?>
<!-- Generator: Adobe Illustrator 27.6.1, SVG Export Plug-In . SVG Version: 6.00 Build 0)  -->
<svg version="1.1" id="Layer_1" xmlns="http://www.w3.org/2000/svg" xmlns:xlink="http://www.w3.org/1999/xlink" x="0px" y="0px"
	 viewBox="0 0 1280 1024" style="enable-background:new 0 0 1280 1024;" xml:space="preserve">
<style type="text/css">
	.st0{fill:#FFFFFF;}
	.st1{fill:#FFFFFF;stroke:#000000;stroke-width:10;stroke-miterlimit:10;}
	.st2{font-family:'MyriadPro-Regular';}
	.st3{font-size:197.8268px;}
</style>
<g>
	<g>
		<g>
			<circle cx="641.7" cy="358.3" r="322.3"/>
		</g>
		<g>
			<path d="M973.3,700.7H310.1c-40.1,0-72.5,32.5-72.5,72.5v362.6c0,40.1,32.5,72.5,72.5,72.5h66.1v-334h40.1v555.9L316,1509h307.3
				v-347.4h36.7V1509h307.3l-100.2-78.7V874.4h40.1v334h66.1c40.1,0,72.5-32.5,72.5-72.5V773.2
				C1045.9,733.2,1013.4,700.7,973.3,700.7z"/>
		</g>
	</g>
	<path class="st0" d="M914.2,261H691.8c-18.1,0-32.8,14.7-32.8,32.8V329h-32v-35.2c0-18.1-14.7-32.8-32.8-32.8H371.8
		c-18.1,0-32.8,14.7-32.8,32.8v98.7c0,18.1,14.7,32.8,32.8,32.8h222.4c18.1,0,32.8-14.7,32.8-32.8V358h32v34.6
		c0,18.1,14.7,32.8,32.8,32.8h222.4c18.1,0,32.8-14.7,32.8-32.8v-98.7C947,275.7,932.3,261,914.2,261z M598.6,376.3
		c0,18.1-14.7,32.8-32.8,32.8H400.2c-18.1,0-32.8-14.7-32.8-32.8V310c0-18.1,14.7-32.8,32.8-32.8h165.6c18.1,0,32.8,14.7,32.8,32.8
		V376.3z M918.6,376.3c0,18.1-14.7,32.8-32.8,32.8H720.2c-18.1,0-32.8-14.7-32.8-32.8V310c0-18.1,14.7-32.8,32.8-32.8h165.6
		c18.1,0,32.8,14.7,32.8,32.8V376.3z"/>
</g>
<g>
	<g>
		<path class="st1" d="M888.2,1183H459.8c-30.3,0-54.8-24.5-54.8-54.8V630c0-30.3,24.5-54.8,54.8-54.8h428.4
			c30.3,0,54.8,24.5,54.8,54.8v498.2C943,1158.5,918.5,1183,888.2,1183z"/>
		<path class="st1" d="M857.2,1151.6H428.8c-30.3,0-54.8-24.5-54.8-54.8V598.7c0-30.3,24.5-54.8,54.8-54.8h428.4
			c30.3,0,54.8,24.5,54.8,54.8v498.2C912,1127.1,887.5,1151.6,857.2,1151.6z"/>
		<path class="st1" d="M826.2,1120.3H397.8c-30.3,0-54.8-24.5-54.8-54.8V567.3c0-30.3,24.5-54.8,54.8-54.8h428.4
			c30.3,0,54.8,24.5,54.8,54.8v498.2C881,1095.7,856.5,1120.3,826.2,1120.3z"/>
	</g>
	<text transform="matrix(1 0 0 1 356.6172 697.2891)" class="st2 st3">NEWS</text>
	<rect x="372" y="737" width="470" height="26"/>
	<rect x="372" y="791.6" width="470" height="26"/>
	<rect x="372" y="846.2" width="470" height="26"/>
	<rect x="372" y="900.8" width="470" height="26"/>
	<rect x="372" y="955.4" width="470" height="26"/>
	<rect x="372" y="1010" width="470" height="26"/>
</g>
<g>
	<ellipse cx="320.5" cy="1091" rx="95.5" ry="149"/>
</g>
<g>
	<ellipse cx="964.5" cy="1091" rx="95.5" ry="149"/>
</g>
</svg>
