<?xml version="1.0" encoding="utf-8"?>
<!-- Generator: Adobe Illustrator 27.6.1, SVG Export Plug-In . SVG Version: 6.00 Build 0)  -->
<svg version="1.1" id="Layer_1" xmlns="http://www.w3.org/2000/svg" xmlns:xlink="http://www.w3.org/1999/xlink" x="0px" y="0px"
	 viewBox="0 0 1280 1024" style="enable-background:new 0 0 1280 1024;" xml:space="preserve">
<style type="text/css">
	.st0{fill:#FFFFFF;}
</style>
<g>
	<g>
		<circle cx="632.7" cy="358.3" r="322.3"/>
	</g>
	<g>
		<path d="M964.3,700.7H301.1c-40.1,0-72.5,32.5-72.5,72.5v362.6c0,40.1,32.5,72.5,72.5,72.5h66.1v-334h40.1v555.9L307,1509h307.3
			v-347.4H651V1509h307.3l-100.2-78.7V874.4h40.1v334h66.1c40.1,0,72.5-32.5,72.5-72.5V773.2C1036.9,733.2,1004.4,700.7,964.3,700.7
			z"/>
	</g>
</g>
<path class="st0" d="M905.2,261H682.8c-18.1,0-32.8,14.7-32.8,32.8V329h-32v-35.2c0-18.1-14.7-32.8-32.8-32.8H362.8
	c-18.1,0-32.8,14.7-32.8,32.8v98.7c0,18.1,14.7,32.8,32.8,32.8h222.4c18.1,0,32.8-14.7,32.8-32.8V358h32v34.6
	c0,18.1,14.7,32.8,32.8,32.8h222.4c18.1,0,32.8-14.7,32.8-32.8v-98.7C938,275.7,923.3,261,905.2,261z M589.6,376.3
	c0,18.1-14.7,32.8-32.8,32.8H391.2c-18.1,0-32.8-14.7-32.8-32.8V310c0-18.1,14.7-32.8,32.8-32.8h165.6c18.1,0,32.8,14.7,32.8,32.8
	L589.6,376.3L589.6,376.3z M909.6,376.3c0,18.1-14.7,32.8-32.8,32.8H711.2c-18.1,0-32.8-14.7-32.8-32.8V310
	c0-18.1,14.7-32.8,32.8-32.8h165.6c18.1,0,32.8,14.7,32.8,32.8L909.6,376.3L909.6,376.3z"/>
</svg>
