<?xml version="1.0" encoding="utf-8"?>
<!-- Generator: Adobe Illustrator 27.6.1, SVG Export Plug-In . SVG Version: 6.00 Build 0)  -->
<svg version="1.1" id="Layer_1" xmlns="http://www.w3.org/2000/svg" xmlns:xlink="http://www.w3.org/1999/xlink" x="0px" y="0px"
	 viewBox="0 0 1280 1024" style="enable-background:new 0 0 1280 1024;" xml:space="preserve">
<style type="text/css">
	.st0{fill:#FFFFFF;}
	.st1{fill:#FFFFFF;stroke:#000000;stroke-width:10;stroke-miterlimit:10;}
</style>
<g>
	<g>
		<g>
			<circle cx="1747.7" cy="322.3" r="322.3"/>
		</g>
		<g>
			<path d="M2079.3,664.7h-663.2c-40.1,0-72.5,32.5-72.5,72.5v362.6c0,40.1,32.5,72.5,72.5,72.5h66.1v-334h40.1v555.9L1422,1473
				h307.3v-347.4h36.7V1473h307.3l-100.2-78.7V838.4h40.1v334h66.1c40.1,0,72.5-32.5,72.5-72.5V737.2
				C2151.9,697.2,2119.4,664.7,2079.3,664.7z"/>
		</g>
	</g>
	<path class="st0" d="M2020.2,225h-222.4c-18.1,0-32.8,14.7-32.8,32.8V293h-32v-35.2c0-18.1-14.7-32.8-32.8-32.8h-222.4
		c-18.1,0-32.8,14.7-32.8,32.8v98.7c0,18.1,14.7,32.8,32.8,32.8h222.4c18.1,0,32.8-14.7,32.8-32.8V322h32v34.6
		c0,18.1,14.7,32.8,32.8,32.8h222.4c18.1,0,32.8-14.7,32.8-32.8v-98.7C2053,239.7,2038.3,225,2020.2,225z M1704.6,340.3
		c0,18.1-14.7,32.8-32.8,32.8h-165.6c-18.1,0-32.8-14.7-32.8-32.8V274c0-18.1,14.7-32.8,32.8-32.8h165.6c18.1,0,32.8,14.7,32.8,32.8
		V340.3z M2024.6,340.3c0,18.1-14.7,32.8-32.8,32.8h-165.6c-18.1,0-32.8-14.7-32.8-32.8V274c0-18.1,14.7-32.8,32.8-32.8h165.6
		c18.1,0,32.8,14.7,32.8,32.8V340.3z"/>
</g>
<g>
	<g>
		<path class="st1" d="M1994.2,1147h-428.4c-30.3,0-54.8-24.5-54.8-54.8V594c0-30.3,24.5-54.8,54.8-54.8h428.4
			c30.3,0,54.8,24.5,54.8,54.8v498.2C2049,1122.5,2024.5,1147,1994.2,1147z"/>
		<path class="st1" d="M1963.2,1115.6h-428.4c-30.3,0-54.8-24.5-54.8-54.8V562.7c0-30.3,24.5-54.8,54.8-54.8h428.4
			c30.3,0,54.8,24.5,54.8,54.8v498.2C2018,1091.1,1993.5,1115.6,1963.2,1115.6z"/>
		<path class="st1" d="M1932.2,1084.3h-428.4c-30.3,0-54.8-24.5-54.8-54.8V531.3c0-30.3,24.5-54.8,54.8-54.8h428.4
			c30.3,0,54.8,24.5,54.8,54.8v498.2C1987,1059.7,1962.5,1084.3,1932.2,1084.3z"/>
	</g>
	<text transform="matrix(1 0 0 1 1462.6172 661.2891)" style="font-family:'MyriadPro-Regular'; font-size:197.8268px;">NEWS</text>
	<rect x="1478" y="701" width="470" height="26"/>
	<rect x="1478" y="755.6" width="470" height="26"/>
	<rect x="1478" y="810.2" width="470" height="26"/>
	<rect x="1478" y="864.8" width="470" height="26"/>
	<rect x="1478" y="919.4" width="470" height="26"/>
	<rect x="1478" y="974" width="470" height="26"/>
</g>
<g>
	<ellipse cx="1426.5" cy="1055" rx="95.5" ry="149"/>
</g>
<g>
	<ellipse cx="2070.5" cy="1055" rx="95.5" ry="149"/>
</g>
<path d="M792.3,93H487.7c-34.6,0-62.7,28.1-62.7,62.7v266.6c0,34.6,28.1,62.7,62.7,62.7h304.6c34.6,0,62.7-28.1,62.7-62.7V155.7
	C855,121.1,826.9,93,792.3,93z M774.2,398.7l-8.7-99.8c-2.5-31.7-5.6-69.8-5.1-98.1h-1.5c-11.7,26.6-26,55-43.3,86.3L655,397.3
	h-33.6l-55.5-108.3c-16.3-32-30.1-61.4-39.7-88.4h-1c-1,28.3-3.6,66.4-6.6,100.5l-9.2,97.5H467L491,171.4h56.5l58.6,109.9
	c14.3,28,26,53,34.6,76.6h1.5c8.7-22.9,20.9-47.9,36.2-76.6l61.1-109.9h56.5l21.4,227.3H774.2z"/>
<path d="M1093.3,518H788.7c-34.6,0-62.7,28.1-62.7,62.7v266.6c0,34.6,28.1,62.7,62.7,62.7h304.6c34.6,0,62.7-28.1,62.7-62.7V580.7
	C1156,546.1,1127.9,518,1093.3,518z M901.7,827.4c-44.3,0-81.7-6.7-101-13.5l13.7-22.6c16.8,5.4,49.9,12.1,86.7,12.1
	c51.7,0,96-18.2,96-47.6c-0.6-28.3-35.5-48.6-116.6-48.6c-23.1,0-41.1,1.3-56.1,2.4l26.2-105.2h193.9v25H889.8l-15.6,56.3
	c9.4-0.7,18.1-1.3,33-1.3c31.2,0,62.3,3.7,87.3,11.8c31.8,9.8,58,28.7,58,56.3C1052.5,795.4,989.6,827.4,901.7,827.4z"/>
<g>
	<path d="M535.3,518H230.7c-34.6,0-62.7,28.1-62.7,62.7v266.6c0,34.6,28.1,62.7,62.7,62.7h304.6c34.6,0,62.7-28.1,62.7-62.7V580.7
		C598,546.1,569.9,518,535.3,518z M442.6,796c-31.2,16.5-74.2,26.6-117.8,29.3c-19.9,1.7-37.4,2-50.5,1.7v-24.3
		c11.8,0.7,25.6,0,44.3-1c31.8-2.4,61.7-9.4,84.8-21.2c26.8-13.2,46.1-32.4,53.6-58.3h-1.9c-22.4,14.8-54.9,23.6-95.4,23.6
		c-72.9,0-119.7-29.7-119.7-67.1c0-41.5,55.5-77.9,138.4-77.9s134,36.4,134,92.4C512.5,741.4,482.5,775.1,442.6,796z"/>
	<path d="M374.1,623.3c-46.8,0-79.8,22.3-79.8,53.3c0,27.3,30.5,46.5,77.9,46.5c36.8,0,65.5-9.8,79.8-22.9c3.1-2.7,5-6.1,5-10.8
		C457,652,431.4,623.3,374.1,623.3z"/>
</g>
</svg>
